<?xml version="1.0" encoding="UTF-8" standalone="no"?>
<svg
   width="379.49789224364275"
   height="374.77125854492186"
   viewBox="0 0 312.5 308.60782283369844"
   class="looka-1j8o68f"
   version="1.1"
   id="svg10"
   sodipodi:docname="logo.svg"
   inkscape:export-filename="logo.png"
   inkscape:export-xdpi="300"
   inkscape:export-ydpi="300"
   inkscape:version="1.4 (1:1.4+202410161351+e7c3feb100)"
   xmlns:inkscape="http://www.inkscape.org/namespaces/inkscape"
   xmlns:sodipodi="http://sodipodi.sourceforge.net/DTD/sodipodi-0.dtd"
   xmlns="http://www.w3.org/2000/svg"
   xmlns:svg="http://www.w3.org/2000/svg">
  <sodipodi:namedview
     id="namedview10"
     pagecolor="#ffffff"
     bordercolor="#000000"
     borderopacity="0.25"
     inkscape:showpageshadow="2"
     inkscape:pageopacity="0.0"
     inkscape:pagecheckerboard="0"
     inkscape:deskcolor="#d1d1d1"
     inkscape:zoom="1.8867689"
     inkscape:cx="267.38834"
     inkscape:cy="208.0276"
     inkscape:window-width="2508"
     inkscape:window-height="1363"
     inkscape:window-x="52"
     inkscape:window-y="40"
     inkscape:window-maximized="1"
     inkscape:current-layer="svg10" />
  <defs
     id="SvgjsDefs6208" />
  <g
     id="SvgjsG6209"
     featurekey="rootContainer"
     transform="matrix(2.8950081747227903,0,0,2.8950081747227903,-0.16083872809651176,0)"
     fill="#ffffff"
     style="fill:#ffffff">
    <g
       id="g6"
       style="fill:#ffffff">
      <path
         d="M19.8 15.3h.5l-.4-.2zm.5.1zm.8-.7c0 .1 0 .1.1.1l.4-.3c-.2-.1-.3-.1-.5.2zm.4-.2zm-4.1 2.3zm-.2.6l.3-.2c.1-.1.1-.2.1-.2h-.2l-.2.4c-.1-.1-.1 0 0 0zm2.2-2.9h-.1l-.2.2h.3zm-2.1 2.4l.6-.5c.1-.1.1-.2.1-.3h-.3l-1.2 1.1-.2.4.7-.6zm-1.1.8z"
         id="path1"
         style="fill:#ffffff" />
      <path
         d="M9.7 25v-.2a1.7 1.7 0 0 1 .7-1.1l.9-.6.5-.6.7-.7.4-.4.4-.3a1.9 1.9 0 0 0 .8-.9l.4-.5a5.9 5.9 0 0 0 1-1.3l.2-.3.3-.2-.2-.3.4-.5c.8-.6 1.4-1.4 2.2-2l.3-.3a1.4 1.4 0 0 1 .5-.6l.8-.4h.4a1.4 1.4 0 0 0 .7-.6V13a3.5 3.5 0 0 1 1.3-1.4l.8-.5.2-.2.4-.4 1-.5h.2l-1.1.4-1.4 1c-.6.5-1.4.6-1.8 1.4h.3c-.7.2-1.4.5-1.7 1.2s-.8.6-1.2.9a.4.4 0 0 0-.3.4c-.8-.1-1.1.5-1.5.9v.8a3.9 3.9 0 0 0-1.6 1.4c-1.6.1-1.6 2.1-3 2.5h-.1a.2.2 0 0 0 0 .2c-.3 0-.5.2-.4.5l-.2.5c-.7.4-.6 1.1-1 1.7-.8.5-1.1 1.5-1.7 2.2l.3.5.2-.2a11.6 11.6 0 0 1 .9-1.3zM53.9 3.3l.6.2h.2a2.2 2.2 0 0 0 1.4.2 4.1 4.1 0 0 1 1.9.1h1.2a1.4 1.4 0 0 1 1.2.3.1.1 0 0 1 0 .1H60a.1.1 0 0 0 0 .1h.7a1.8 1.8 0 0 1 1.3 0c.2 0 .1.1.2.2l.5.2h-.2c-.2-.4-.5-.4-.8-.4a9.7 9.7 0 0 0-4.3-.9h-.8A9.8 9.8 0 0 0 53 3h.2zm7.3 3.1zM50.3 4.7zm10.9 1.7h.2-.2zM19 14.7zm32.1-10zm17.6 2.2a.9.9 0 0 0 1 .2h.6a3.1 3.1 0 0 0-1.8-.7l-.7-.2.5.3zm-3.4-1.3c0 .1.1.2.2.3h.2l.5-.3a4.2 4.2 0 0 0-1.7-.6l.7.4zm7.4 2.7l.8.5c-.2-.3-.4-.5-.8-.5z"
         id="path2"
         style="fill:#ffffff" />
      <path
         d="m 101.45792,74.336902 0.6,-1.6 0.6,-1.5 c 0.2,-0.5 0.6,-1.8 0.8,-2.6 a 1.7,1.7 0 0 1 0.3,-0.7 h 0.1 v -1.1 c 0.5,-0.1 0.4,-0.6 0.5,-0.9 l 0.8,-4.7 a 12.7,12.7 0 0 0 0,-6.2 1.9,1.9 0 0 0 -0.5,-1.6 v -4.3 c -0.3,-0.9 0.3,-1.9 -0.4,-2.7 l -0.8,-3.2 a 0.4,0.4 0 0 0 0,-0.2 l -0.2,-0.6 a 0.5,0.5 0 0 1 0,-0.4 h 0.1 c 0.3,0 0.3,-0.5 0.3,-0.9 a 3,3 0 0 0 -0.4,-1.1 l -0.3,-0.4 a 1.1,1.1 0 0 1 -0.2,-0.7 6.7,6.7 0 0 0 -0.2,-2 v -0.6 c -0.2,-0.7 -0.4,-1.5 -0.6,-2.2 l -0.2,-0.5 a 2.5,2.5 0 0 1 -0.4,-1.1 2.5,2.5 0 0 0 -0.3,-0.8 l -0.6,-1 a 0.8,0.8 0 0 0 -0.600005,-0.2 h -0.1 v -0.3 h -0.2 v -0.8 h -0.1 v -0.2 a 0.4,0.4 0 0 0 0,-0.1 v -0.2 c 0.1,-0.2 0.1,-0.3 -0.1,-0.5 a 1.8,1.8 0 0 1 -0.400002,-0.6 l -0.2,-0.6 a 2.9,2.9 0 0 0 -0.7,-1.2 2.2,2.2 0 0 1 -0.5,-0.7 l -0.7,-1.6 a 4.3,4.3 0 0 0 -0.6,-1 l -0.6,-0.8 a 2.4,2.4 0 0 1 -0.4,-0.8 l -0.2,-0.3 a 0.6,0.6 0 0 1 -0.1,-0.5 0.5,0.5 0 0 0 -0.2,-0.4 l -0.4,-0.3 v 0.2 c 0.1,0.2 0,0.3 -0.1,0.3 h -0.2 l 0.3,1 0.3,0.5 0.7,0.9 h -0.1 l -0.2,-0.2 -0.2,-0.2 a 1.3,1.3 0 0 0 -1.2,-1.1 v -0.7 c -0.3,-1.2 -1.6,-1.3 -2.2,-2.1 a 1.5,1.5 0 0 0 -1.1,-0.9 l -0.8,-0.9 a 11.3,11.3 0 0 0 -3.1,-3 l -0.8,-0.6 -0.4,-0.3 c -0.7,-0.7 -1,-1.8 -2.2,-1.8 l -0.8,-0.5 -0.9,-0.6999998 a 2.2,2.2 0 0 0 -1.8,-1.3 5.1,5.1 0 0 0 -2.3,-1.2 l 0.2,0.2 0.5,0.4 1.3,0.7 a 8.5,8.5 0 0 1 2.1,1.6 6.8,6.8 0 0 0 1.5,1.0999998 l 0.6,0.5 c 0.1,0.1 0.2,0.2 0.1,0.3 h -0.1 l -0.9,-0.3 a 5.6,5.6 0 0 1 -2,-0.8 l -1.2,-0.6 -1.3,-0.6999998 h -0.2 c -0.3,-0.1 -0.4,-0.4 -0.8,-0.5 l -0.8,-0.2 -2.5,-0.5 a 2.6,2.6 0 0 1 -0.9,-0.7 1.7,1.7 0 0 1 -0.9,-0.3 l -1,-0.4 a 18.1,18.1 0 0 1 -2.8,-0.8 l -0.6,-0.2 -1,-0.3 h -0.5 l -0.2,-0.3 v -0.1 h -1.6 l -0.6,-0.5 -0.4,0.2 -0.4,0.2 h -0.2 l -0.9,-0.5 c -0.6,0.6 -1.1,-0.2 -1.6,-0.1 l -1,-0.3 a 1.2,1.2 0 0 1 -1.2,0 h -1.2 a 0.6,0.6 0 0 1 -0.5,-0.6 l 0.3,-0.2 h 0.6 a 0.7,0.7 0 0 1 0.1,0.3 c 0,0.2 0.2,0.2 0.5,0.2 h 0.2 l -0.4,-0.6 a 1.1,1.1 0 0 0 -1,-0.2 l -1,0.3 h -0.1 c 0.3,0.2 0.2,0.3 0.2,0.5 h -1.6 l -0.4,-0.2 -0.8,-0.4 h -0.1 l -0.7,-0.2 h -2.3 l 0.4,-0.2 0.8,-0.2 h 0.3 l 1.7,-0.3 1.1,-0.2 0.6,-0.2 h -1.1 a 8.4,8.4 0 0 0 -3.4,0 h -1.3 l -3.4,-0.1 c -1.4,0.1 -2.8,0 -3.9,1.2 -2.5,-0.4 -4.7,0.7 -6.9,1.8 l -2.2,0.9 a 6.7,6.7 0 0 0 -3.7,1.8 h 0.3 l 0.5,-0.3 0.8,-0.5 1.3,-0.6 1,-0.2 a 6,6 0 0 1 2,-0.9 l 0.9,-0.3 h 0.2 c 0.1,0.2 0.5,0 0.7,0 h 0.2 c 0.1,0 0.1,0.1 0,0.1 l -0.6,0.4 1,-0.3 0.8,-0.2 -1.3,0.7 -1.3,0.4 a 1,1 0 0 0 -0.6,0.5 l -0.3,0.5 h 0.3 l 0.4,-0.2 a 1.4,1.4 0 0 1 0.9,-0.6 l 1.5,-0.5 h 0.5 a 0.1118034,0.1118034 0 0 1 0.1,0.2 c -0.2,0.2 -0.6,0.3 -0.8,0.5 h 0.2 l -3.2,0.9 -3.8,1.6 a 5.2,5.2 0 0 1 -2.3,1.2 6.6,6.6 0 0 1 -1.7,1.0999998 l -0.8,0.2 a 1.5,1.5 0 0 1 -1.3,0.9 l -0.3,0.5 a 3.7,3.7 0 0 1 -1.2,1.1 h -0.1 v -0.1 l -0.2,0.2 -0.2,0.2 -1,0.2 h -0.5 l -0.4,0.5 c -0.1,0.1 -0.1,0.2 0,0.2 h 0.1 c -0.6,0.6 -1,1.4 -1.8,1.7 l -1.3,1.5 c -0.6,1.2 -1.8,1.6 -2.6,2.6 -0.8,1 -1.4,3.9 -3.9,4.3 l -0.2,-0.3 -0.2,0.5 a 2.7,2.7 0 0 1 -0.4,0.8 16.9,16.9 0 0 0 -1.1999996,2.1 0.8,0.8 0 0 0 -0.1,0.5 1.4,1.4 0 0 1 -0.2,0.8 l -0.5,1.1 h 0.2 c 0.3,0 0.3,0.3 0.4,0.6 l 0.7999997,-1.1 a 2.2,2.2 0 0 1 0.5999999,-0.7 2,2 0 0 0 0.9,-0.9 l 0.3,-0.3 0.4,-0.4 0.6,-1.1 h 0.2 c 0.1,0.1 0.1,0.1 0.2,0 l 0.2,-0.4 h 0.5 v 0.8 l 0.5,-0.5 a 0.5,0.5 0 0 0 0,-0.5 0.4,0.4 0 0 1 0.1,-0.3 1.5,1.5 0 0 0 0.3,-0.5 1.3,1.3 0 0 1 0.8,-0.9 l 0.3,-0.2 0.3,-0.3 a 2.4,2.4 0 0 0 0.8,-1 l -0.2,-0.3 c 0,-0.1 0.1,-0.3 0.2,-0.4 h 0.5 l 0.6,-0.8 0.6,-0.3 h 0.2 a 48.8,48.8 0 0 0 -5.5,7.2 h -0.1 0.1 a 48.4,48.4 0 0 0 -5.2999996,11.2 h -0.5 l -0.5,-0.4 c -0.2,-0.2 -0.1,-0.7 -0.4,-0.9 h 0.1 c 0.3,-0.5 -0.1,-1.2 0.3,-1.7 0.4,-0.5 0.1,-1.4 -0.9,-1.2 -1,0.2 -1.5,0.5 -1.3,1.5 0.2,1 -1,1.8 -1.1,2.9 -0.1,1.1 -0.5,0.5 -0.3,0.9 v 3.9 c 0.1,0.8 -0.5,1.8 0.8,2.1 l 1.3,0.9 c 0.1,0.5 -0.5,1.6 0.9,1.3 a 49.2,49.2 0 0 0 -0.3,5 c 0,1.1 0.1,2.2 0.1,3.3 v -0.4 c -0.1,-0.4 -0.1,-0.8 -0.2,-1.3 l -0.3,0.3 v -0.2 h -0.5 c 0,0.5 -0.1,0.8 -0.4,0.9 a 0.9,0.9 0 0 0 -0.1,0.5 c 0,0.1 0.1,0.3 0.2,0.2 0.1,-0.1 0.4,0.2 0.7,0.4 0.3,0.2 -0.2,0.3 -0.4,0.2 -0.2,-0.1 -0.2,0.1 -0.2,0.3 v 0.3 l 0.5,1.5 c 0,0.3 -0.1,0.6 -0.1,0.9 a 1.7,1.7 0 0 0 0.2,0.8 h -0.3 v -0.3 l -0.7,-0.2 v -0.6 a 1.5,1.5 0 0 0 0,-0.5 14.6,14.6 0 0 1 -0.3,-1.8 16.6,16.6 0 0 1 -0.2,-3.5 0.9,0.9 0 0 1 0.1,-0.5 v 0.2 a 2.9,2.9 0 0 1 0.1,0.5 0.8,0.8 0 0 0 0.1,0.4 c 0.1,0.2 0.2,0.4 0.4,0.4 0.2,0 0.1,-0.1 0.1,-0.2 a 2.1,2.1 0 0 0 -0.1,-0.5 4.2,4.2 0 0 1 -0.3,-1.3 1.5,1.5 0 0 0 -0.3,-0.7 1.6,1.6 0 0 1 -0.2,-0.9 v -0.8 c 0,-0.3 0.1,-0.6 0.1,-0.9 a 0.5,0.5 0 0 0 -0.1,-0.4 h -0.1 c -0.8,0.4 -0.7,0.2 -1,1.6 v 1.8 c 0,0.7 -0.1,1.4 0,2.1 a 10.8,10.8 0 0 0 0.2,2.3 1.8,1.8 0 0 1 0,0.5 3.1,3.1 0 0 0 0.1,0.9 5.9,5.9 0 0 1 0.1,1.3 3.9,3.9 0 0 0 0.2,1.7 1.2,1.2 0 0 1 0,0.4 2.1,2.1 0 0 0 0.1,0.8 4.9,4.9 0 0 1 0.2,0.9 14,14 0 0 0 0.5,2.2 5,5 0 0 1 0.2,1 1.7,1.7 0 0 0 0.3,0.7 2.9,2.9 0 0 1 0.5,1.2 8.5,8.5 0 0 0 0.3,1 l 0.4,1.4 a 5.4,5.4 0 0 0 0.6,1.5 8.5,8.5 0 0 1 0.8,2.1 l 0.2,0.5 a 2.1,2.1 0 0 1 0.5,1 2.1,2.1 0 0 0 0.4,0.8 1,1 0 0 1 0.2,0.5 c 0.1,0.3 0.2,0.4 0.4,0.3 h 0.1 v 0.9 l 0.4999997,1 0.5,1 1.0999999,1.2 0.4,0.4 c 0.3,0.3 0.7,0.5 0.9,1 l 0.4,0.3 a 0.7,0.7 0 0 1 0.3,0.5 l 0.2,0.7 a 3.3,3.3 0 0 0 0.6,0.9 l 0.4,0.2 h 0.3 a 0.2,0.2 0 0 1 0.1,0.3 2.5,2.5 0 0 0 0,0.5 0.9,0.9 0 0 0 0.4,0.5 h 0.2 c 0.4,-0.1 0.8,0.2 1.2,0.7 h 0.1 c 0,-0.1 0.1,-0.1 0,-0.2 v -0.2 c 0,-0.1 0.1,-0.2 0.2,-0.1 a 0.7,0.7 0 0 1 0.3,0.6 v 0.2 a 4.3,4.3 0 0 0 0.4,1.2 c 0.5,0.3 0.5,0.3 0.5,0.1 0,-0.2 0,-0.2 0.2,-0.2 h 0.4 l 0.2,0.3 0.8,0.5 c 0.7,0.8 1.8,0.7 2.6,1.2 l 1.7,1.7 h 0.2 a 2.9,2.9 0 0 0 1.6,1.6 1.3,1.3 0 0 0 1,0.6 c 0,0.5 0.6,0.6 1.1,0.7 a 1.2,1.2 0 0 0 0.8,0.4 h 0.2 a 1.7,1.7 0 0 0 1.5,0.5 l 0.9,0.8 2.4,0.9 v 0.2 c 0.5,1.099998 1.7,0.7 2.5,0.999998 l 1.1,0.4 h 0.4 c 1.2,0.3 2.4,0.9 3.7,0.5 a 0.7,0.7 0 0 0 0,0.4 c 1.1,0.7 2.4,0 3.6,0.4 a 2.9,2.9 0 0 0 1.7,0.1 h 0.1 l 0.8,0.2 h 0.3 l 0.9,0.2 h 0.3 a 0.5,0.5 0 0 1 0.5,0 7.9,7.9 0 0 0 1.5,0.4 h 0.6 a 0.7,0.7 0 0 1 0.7,0 h 3.9 a 5,5 0 0 0 1.6,-0.1 h 1 l 0.5,-0.2 h 3.3 l 0.6,-0.2 0.5,-0.3 h 2.2 v 0.6 h -1.3 l -1.2,0.2 c -0.4,0.1 -0.7,0 -1,0.1 a 2.4,2.4 0 0 1 -1,0.2 l -1.3,0.3 h -0.4 a 3.1,3.1 0 0 0 -1.5,0.1 h -1.8 a 1.1,1.1 0 0 1 -0.9,0 h -4.5 a 1.3,1.3 0 0 0 -1.1,0.3 h -0.3 l -0.3,-0.2 v -0.3 h -1.2 a 4.1,4.1 0 0 0 -1.3,-0.3 h -2.5 l -0.7,-0.2 -0.5,-0.2 -2.1,-0.4 h -0.5 l -0.5,-0.2 -2.1,-0.7 -1.4,-0.4 h -2.2 c -0.1,0 -0.1,0.1 -0.1,0.2 h 0.2 c 1.3,0.5 2.6,0.9 3.9,1.5 h 0.3 l 0.9,0.2 1.4,0.4 h 1.3 l 0.6,0.2 0.7,0.3 1.7,0.3 1.1,0.2 1.1,0.2 h 0.8 l 0.8,0.2 h 3.1 l 1,0.2 h 2.3 l 1,-0.2 h 2.2 c 0.4,0 0.6,-0.1 0.7,-0.3 h 1 a 1,1 0 0 0 0.8,-0.3 c -0.1,0.1 0,0.1 0.1,0.2 h 0.4 v -0.2 c 0,-0.1 0,-0.1 0.2,-0.2 0.2,-0.1 0.6,-0.1 0.7,0.1 h 0.4 l 0.3,-0.2 c 0.2,0 0.2,0 0.2,0.1 h 0.7 l 0.5,-0.2 0.8,-0.4 c 0.1,0.3 0.4,0.4 1.3,0.2 l 1.3,-0.4 h 1.2 c 0.9,-0.1 2,0 2.7,-0.7 h 0.2 l 0.4,-0.3 1.1,-0.3 a 6.1,6.1 0 0 0 2,-0.8 l 0.4,-0.2 h 0.1 l 0.9,-0.6 0.4,-0.199998 0.5,-0.2 h 0.4 c 0.4,-0.1 0.4,-0.1 0.5,-0.4 0.1,-0.3 0,-0.1 -0.2,-0.1 h -0.1 l 0.4,-0.5 h 0.2 c 0.3,-0.1 0.5,-0.2 0.7,-0.1 h 0.2 a 1.3,1.3 0 0 0 0.9,-0.9 c 0.3,-0.4 1.1,-0.2 1.3,-0.8 l 4.3,-3.1 c 1.1,-0.1 1.4,-1.1 2.2,-1.7 0.8,-0.6 2.3,-1.1 3,-2.2 l 0.9,-0.4 h 0.1 a 1,1 0 0 0 1.2,-0.7 v 0.4 c 0.8,-0.4 1.8,0.3 2.6,-0.5 0.8,-0.8 0,-2.7 1,-3.8 l 0.7,-0.5 a 12.1,12.1 0 0 0 1.500002,-4.2 l 0.2,-0.2 c 0,-0.3 0,-0.7 0.400005,-0.9 a 0.9,0.9 0 0 0 0.2,-1.2 h -0.2 a 0.3,0.3 0 0 0 0,-0.3 c 0.7,0 0.8,-0.7 1.2,-1 v -1.4 a 0.5,0.5 0 0 1 0,-0.2 3.8,3.8 0 0 0 0.1,-0.7 z m -93.1000066,-43.9 z"
         id="path3"
         style="fill:#ffffff" />
      <path
         d="M26.4 9.3l-.3.2-.4.3.5-.2zm6.1-2h.1l.3-.2h-.4zm-2.6 1l-.1.1h.1v-.1zm-1.5 1.4zm1.3-.2zm-6.3 3.1zM9.2 26.2l-.4.4H9a.4.4 0 0 0 .2-.4zm3-3.5a2.1 2.1 0 0 0 .3-.6 1.5 1.5 0 0 0-.5.5c-.1.1-.1.2 0 .2zM11 24.2V24c-.2 0-.5.3-.8.3v.2c.3.3.4.2.8-.3zm3 66.2zM73.9 9.2h.1l-.5-.3zm-2.5-1.4c.5-.1.8.4 1.2.5h.1l-.3-.2-1-.5-1.1-.5.3.2zM52.8 3.1zm11.7 2h-.1l-1.2-.2h.5zm2 .7l1.3.4a3.3 3.3 0 0 0-1.3-.4zm-9 0a1 1 0 0 0 .2-.5h-.5l-.3.3.4.3zm9 1.6zM49.9 4.2zm2.9.7zM48.5 4zm13.8 2.1a.5.5 0 0 0 0 .1zm44.8 52.3h-.3V58h.3c.1 0 .2-.3.1-.4s-.1-.7-.3-.8a.3.3 0 0 1-.2-.3l.2-.4a.4.4 0 0 0 0-.2h-.2l-.2-.3c-.1.3-.2.6-.4.7a.5.5 0 0 0 0 .2c0 .1 0 .2-.1.2h-.1a1.1 1.1 0 0 1-.1.3 2.3 2.3 0 0 0-.4.9.4.4 0 0 0 .1.4h.1a1.7 1.7 0 0 0-.1.8v.4a1.8 1.8 0 0 1-.1.5h-.1l-.4.7v.6a1.5 1.5 0 0 1-.3 1.1h-.2l-.2-.2a.9.9 0 0 1-.1-.8 6.5 6.5 0 0 0 .1-1.7c0-.1-.1-.2-.1-.2a.5.5 0 0 0-.1.3v.6c0 .2-.1.6-.3.7s-.1.2-.1.3l-.2.6.3.5c-.2.2-.4.1-.5-.1v1h.3v.4a4.2 4.2 0 0 0-.3 1.4 3.3 3.3 0 0 0 0 .4 4 4 0 0 1-.2 1.3 2 2 0 0 0 0 .6l-.3.7a3.2 3.2 0 0 1-.3.7l-.3.6-.9 2.7c.3.9-.4 1.5-.8 2.1a2.7 2.7 0 0 1-.8 2.3v.4c0 .1.1.2.3.1l.4-.3.2-.4h.2c.1.1.2.1.4-.1h.2a.5.5 0 0 1 .1.6 2.9 2.9 0 0 0-.1.8c0 .1 0 .2.1.2h.2c.1.1.2 0 .3-.3l.2-.5h.3c.4-.1.4-.1.6-.6l.5-.9.3-.6.4-1a1.6 1.6 0 0 1 .3-1 .6.6 0 0 0 .1-.6c0-.2 0-.3.2-.6l.3-.4.5-1a4.7 4.7 0 0 1 .2-.9 3 3 0 0 0 .3-1.3 3.8 3.8 0 0 1 .3-.9v-.5c-.1-.2-.1-.2 0-.6s.1-.2.2-.2a.4.4 0 0 1 .1.3l.2-.5a2.3 2.3 0 0 0 .2-.9v-.3c0-.1 0-.3-.1-.3v.4c-.2 0-.3.2-.5.3a6.4 6.4 0 0 0 .1-.8l.4-.2a.7.7 0 0 0 .2-.6 1.4 1.4 0 0 1 0-.3 4.8 4.8 0 0 0 .2-1.4v-.2l.3-1h.1a.3.3 0 0 0 .1-.3h-.1a.9.9 0 0 1 .2-.8 1.5 1.5 0 0 0-.9-1zm-1.2 7.8zm-.2-9.9zm0 0zM9.1 30.8a.3.3 0 0 0 0-.2l-.2-.2-.2.2-.3.6c0 .3-.3.6-.3.9v.2h.1zm96.3 24.8h.1a1.7 1.7 0 0 0 .2-1.2.5.5 0 0 1 .2-.5h.1v-.2l-.2-.2h-.1c-.1.1-.2.3-.3.3s-.1.1-.1.3v.3a2.2 2.2 0 0 0 .1 1.2zM13.2 90.1c-.1 0 0 .2 0 .3l.8.8h.1c-.2-.3-.3-.6-.2-.7a.9.9 0 0 1-.5-.2zm.8.3zm92.3-35.7h.1a2 2 0 0 0 0-.6c-.3.1-.3.1-.3.6s.1.1.2 0z"
         id="path4"
         style="fill:#ffffff" />
      <path
         d="M106.7 62a.6.6 0 0 0 .1-.5c0-.1-.1-.2-.1-.1h-.2v.2c0 .4.1.5.2.4zm.1-8.2h-.1v.6a1 1 0 0 0 .1-.6zM17.1 92.6h-.2v.2l.2.2h.2v-.2zm86.6-33.3c0-.1 0-.1-.1-.1zM9.9 86.5l.5.5-.4-.6z"
         id="path5"
         style="fill:#ffffff" />
      <circle
         cx="10.5"
         cy="87.1"
         transform="rotate(-24.8 10.4 87.159)"
         id="circle5"
         style="fill:#ffffff" />
      <path
         d="M9.7 30.1h-.1v.2-.2h.1zm83.2-6.6l-.2-.3h-.1zm-14.7 77.1zM5.9 32.2zm-.1.2a.3.3 0 0 0 .1-.2v.2zm1.9-4.9zM61.5 2.4zm42.8 58.2v.1-.1zM16.4 92.5h-.1c.1.1.2 0 .1-.1zm.2.7h.1l-.1-.1v.1zm73.9-71.3zm15.2 34.4zM14.6 91.7zm92.1-37zm-.8 11.4zM34.6 0z"
         id="path6"
         style="fill:#ffffff" />
    </g>
  </g>
  <g
     id="SvgjsG6213"
     featurekey="sloganFeature-0"
     transform="matrix(0.3552200795608206,0,0,0.3552200795608206,75.39612584780839,227.92906730202583)"
     fill="#111111" />
  <g
     id="SvgjsG6210"
     featurekey="symbolFeature-0"
     transform="matrix(0.88530824,0,0,0.88530824,115.54245,60.939586)"
     fill="#111111">
    <g
       id="g7">
      <path
         d="m 77.886,57.308 7.853,8.791 -11.787,-0.061 c 0,0 -12.342,-9.901 -23.731,-15.815 5.223,11.78 14.331,24.663 14.331,24.663 l -0.664,11.769 -8.29,-8.378 c 0,0 -1.727,-15.729 -5.598,-27.967 -4.64,12.023 -7.307,27.576 -7.307,27.576 l -8.791,7.853 0.062,-11.787 c 0,0 9.902,-12.342 15.817,-23.732 -11.784,5.22 -24.667,14.332 -24.667,14.332 l -11.768,-0.665 8.377,-8.291 c 0,0 15.729,-1.726 27.965,-5.597 -12.022,-4.64 -27.574,-7.307 -27.574,-7.307 l -7.852,-8.791 11.787,0.061 c 0,0 12.342,9.901 23.731,15.815 C 44.56,37.997 35.449,25.114 35.449,25.114 l 0.664,-11.769 8.29,8.377 c 0,0 1.726,15.728 5.599,27.963 4.639,-12.021 7.306,-27.571 7.306,-27.571 l 8.791,-7.853 -0.061,11.786 c 0,0 -9.901,12.343 -15.815,23.733 11.78,-5.222 24.663,-14.333 24.663,-14.333 l 11.768,0.665 -8.377,8.291 c 0,0 -15.726,1.726 -27.965,5.597 12.022,4.641 27.574,7.308 27.574,7.308 z M 65.245,35.397 c 5.922,-5.136 14.438,-9.94 14.438,-9.94 l 2.699,-6.637 -6.737,2.442 c 0,0 -5.102,8.305 -10.485,14.048 z M 34.756,64.603 c -5.923,5.136 -14.439,9.94 -14.439,9.94 l -2.699,6.637 6.737,-2.442 c 0,0 5.102,-8.306 10.485,-14.048 z M 28.842,49.364 C 21.023,48.81 11.603,46.184 11.603,46.184 L 5,48.97 l 6.492,3.037 c 0,0 9.481,-2.266 17.348,-2.52 z m 59.666,-1.371 c 0,0 -9.479,2.266 -17.348,2.52 v 0.123 c 7.817,0.554 17.236,3.18 17.236,3.18 L 95,51.03 Z M 50.637,28.841 C 51.19,21.022 53.816,11.602 53.816,11.602 L 51.032,5 47.994,11.492 c 0,0 2.266,9.479 2.521,17.348 z m -1.274,42.316 c -0.553,7.82 -3.179,17.237 -3.179,17.237 L 48.968,95 52.006,88.506 c 0,0 -2.266,-9.479 -2.518,-17.347 z M 35.311,34.841 35.398,34.755 C 30.261,28.834 25.459,20.317 25.459,20.317 l -6.638,-2.7 2.442,6.738 c 0,0 8.303,5.102 14.048,10.486 z m 29.378,30.318 -0.09,0.086 c 5.14,5.92 9.942,14.438 9.942,14.438 l 6.638,2.698 -2.442,-6.736 c 0,0 -8.306,-5.104 -14.048,-10.486 z"
         id="path7" />
    </g>
  </g>
  <text
     xml:space="preserve"
     style="font-style:normal;font-variant:normal;font-weight:500;font-stretch:normal;font-size:29.19669976px;font-family:Montserrat;-inkscape-font-specification:'Montserrat, Medium';font-variant-ligatures:normal;font-variant-caps:normal;font-variant-numeric:normal;font-variant-east-asian:normal;text-align:start;writing-mode:lr-tb;direction:ltr;text-anchor:start;fill:#000000;fill-opacity:1;stroke-width:2.43332;stroke-dasharray:none"
     x="83.619049"
     y="196.21823"
     id="text10"><tspan
       sodipodi:role="line"
       style="font-style:normal;font-variant:normal;font-weight:500;font-stretch:normal;font-size:29.19669976px;font-family:Montserrat;-inkscape-font-specification:'Montserrat, Medium';font-variant-ligatures:normal;font-variant-caps:normal;font-variant-numeric:normal;font-variant-east-asian:normal;fill:#000000;fill-opacity:1;stroke-width:2.43332;stroke-dasharray:none"
       x="83.619049"
       y="196.21823"
       id="tspan11">KINGDOM</tspan></text>
  <text
     xml:space="preserve"
     style="font-style:normal;font-variant:normal;font-weight:500;font-stretch:normal;font-size:29.19669976px;font-family:Montserrat;-inkscape-font-specification:'Montserrat, Medium';font-variant-ligatures:normal;font-variant-caps:normal;font-variant-numeric:normal;font-variant-east-asian:normal;text-align:start;writing-mode:lr-tb;direction:ltr;text-anchor:start;fill:#000000;fill-opacity:1;stroke-width:2.43332;stroke-dasharray:none"
     x="84.071617"
     y="226.53792"
     id="text10-0"><tspan
       sodipodi:role="line"
       style="font-style:normal;font-variant:normal;font-weight:500;font-stretch:normal;font-size:29.19669976px;font-family:Montserrat;-inkscape-font-specification:'Montserrat, Medium';font-variant-ligatures:normal;font-variant-caps:normal;font-variant-numeric:normal;font-variant-east-asian:normal;fill:#000000;fill-opacity:1;stroke-width:2.43332;stroke-dasharray:none"
       x="84.071617"
       y="226.53792"
       id="tspan11-8">CATERING</tspan></text>
</svg>
